ModelForces
version=1
nRows=4
nColumns=202
inDegrees=no

This file contains the forces exerted on a model during a simulation.

A force is a generalized force, meaning that it can be either a force (N) or a torque (Nm).

Units are S.I. units (second, meters, Newtons, ...)
Angles are in degrees.

endheader
time	glut_med1_r	glut_med2_r	glut_med3_r	glut_min1_r	glut_min2_r	glut_min3_r	semimem_r	semiten_r	bifemlh_r	bifemsh_r	sar_r	add_long_r	add_brev_r	add_mag1_r	add_mag2_r	add_mag3_r	tfl_r	pect_r	grac_r	glut_max1_r	glut_max2_r	glut_max3_r	iliacus_r	psoas_r	quad_fem_r	gem_r	peri_r	rect_fem_r	vas_med_r	vas_int_r	vas_lat_r	med_gas_r	lat_gas_r	soleus_r	tib_post_r	flex_dig_r	flex_hal_r	tib_ant_r	per_brev_r	per_long_r	per_tert_r	ext_dig_r	ext_hal_r	glut_med1_l	glut_med2_l	glut_med3_l	glut_min1_l	glut_min2_l	glut_min3_l	semimem_l	semiten_l	bifemlh_l	bifemsh_l	sar_l	add_long_l	add_brev_l	add_mag1_l	add_mag2_l	add_mag3_l	tfl_l	pect_l	grac_l	glut_max1_l	glut_max2_l	glut_max3_l	iliacus_l	psoas_l	quad_fem_l	gem_l	peri_l	rect_fem_l	vas_med_l	vas_int_l	vas_lat_l	med_gas_l	lat_gas_l	soleus_l	tib_post_l	flex_dig_l	flex_hal_l	tib_ant_l	per_brev_l	per_long_l	per_tert_l	ext_dig_l	ext_hal_l	ercspn_r	ercspn_l	intobl_r	intobl_l	extobl_r	extobl_l	femur_lat_meniscii_l.femur_lat_l.force.X	femur_lat_meniscii_l.femur_lat_l.force.Y	femur_lat_meniscii_l.femur_lat_l.force.Z	femur_lat_meniscii_l.femur_lat_l.torque.X	femur_lat_meniscii_l.femur_lat_l.torque.Y	femur_lat_meniscii_l.femur_lat_l.torque.Z	femur_lat_meniscii_l.meniscus_lat_l.force.X	femur_lat_meniscii_l.meniscus_lat_l.force.Y	femur_lat_meniscii_l.meniscus_lat_l.force.Z	femur_lat_meniscii_l.meniscus_lat_l.torque.X	femur_lat_meniscii_l.meniscus_lat_l.torque.Y	femur_lat_meniscii_l.meniscus_lat_l.torque.Z	femur_med_meniscii_l.femur_med_l.force.X	femur_med_meniscii_l.femur_med_l.force.Y	femur_med_meniscii_l.femur_med_l.force.Z	femur_med_meniscii_l.femur_med_l.torque.X	femur_med_meniscii_l.femur_med_l.torque.Y	femur_med_meniscii_l.femur_med_l.torque.Z	femur_med_meniscii_l.meniscus_med_l.force.X	femur_med_meniscii_l.meniscus_med_l.force.Y	femur_med_meniscii_l.meniscus_med_l.force.Z	femur_med_meniscii_l.meniscus_med_l.torque.X	femur_med_meniscii_l.meniscus_med_l.torque.Y	femur_med_meniscii_l.meniscus_med_l.torque.Z	femur_lat_meniscii_r.femur_lat_r.force.X	femur_lat_meniscii_r.femur_lat_r.force.Y	femur_lat_meniscii_r.femur_lat_r.force.Z	femur_lat_meniscii_r.femur_lat_r.torque.X	femur_lat_meniscii_r.femur_lat_r.torque.Y	femur_lat_meniscii_r.femur_lat_r.torque.Z	femur_lat_meniscii_r.meniscus_lat_r.force.X	femur_lat_meniscii_r.meniscus_lat_r.force.Y	femur_lat_meniscii_r.meniscus_lat_r.force.Z	femur_lat_meniscii_r.meniscus_lat_r.torque.X	femur_lat_meniscii_r.meniscus_lat_r.torque.Y	femur_lat_meniscii_r.meniscus_lat_r.torque.Z	femur_med_meniscii_r.femur_med_r.force.X	femur_med_meniscii_r.femur_med_r.force.Y	femur_med_meniscii_r.femur_med_r.force.Z	femur_med_meniscii_r.femur_med_r.torque.X	femur_med_meniscii_r.femur_med_r.torque.Y	femur_med_meniscii_r.femur_med_r.torque.Z	femur_med_meniscii_r.meniscus_med_r.force.X	femur_med_meniscii_r.meniscus_med_r.force.Y	femur_med_meniscii_r.meniscus_med_r.force.Z	femur_med_meniscii_r.meniscus_med_r.torque.X	femur_med_meniscii_r.meniscus_med_r.torque.Y	femur_med_meniscii_r.meniscus_med_r.torque.Z	femur_med_tibia_l.tibia_upper_l.force.X	femur_med_tibia_l.tibia_upper_l.force.Y	femur_med_tibia_l.tibia_upper_l.force.Z	femur_med_tibia_l.tibia_upper_l.torque.X	femur_med_tibia_l.tibia_upper_l.torque.Y	femur_med_tibia_l.tibia_upper_l.torque.Z	femur_med_tibia_l.femur_med_l.force.X	femur_med_tibia_l.femur_med_l.force.Y	femur_med_tibia_l.femur_med_l.force.Z	femur_med_tibia_l.femur_med_l.torque.X	femur_med_tibia_l.femur_med_l.torque.Y	femur_med_tibia_l.femur_med_l.torque.Z	femur_lat_tibia_l.tibia_upper_l.force.X	femur_lat_tibia_l.tibia_upper_l.force.Y	femur_lat_tibia_l.tibia_upper_l.force.Z	femur_lat_tibia_l.tibia_upper_l.torque.X	femur_lat_tibia_l.tibia_upper_l.torque.Y	femur_lat_tibia_l.tibia_upper_l.torque.Z	femur_lat_tibia_l.femur_lat_l.force.X	femur_lat_tibia_l.femur_lat_l.force.Y	femur_lat_tibia_l.femur_lat_l.force.Z	femur_lat_tibia_l.femur_lat_l.torque.X	femur_lat_tibia_l.femur_lat_l.torque.Y	femur_lat_tibia_l.femur_lat_l.torque.Z	femur_med_tibia_r.tibia_upper_r.force.X	femur_med_tibia_r.tibia_upper_r.force.Y	femur_med_tibia_r.tibia_upper_r.force.Z	femur_med_tibia_r.tibia_upper_r.torque.X	femur_med_tibia_r.tibia_upper_r.torque.Y	femur_med_tibia_r.tibia_upper_r.torque.Z	femur_med_tibia_r.femur_med_r.force.X	femur_med_tibia_r.femur_med_r.force.Y	femur_med_tibia_r.femur_med_r.force.Z	femur_med_tibia_r.femur_med_r.torque.X	femur_med_tibia_r.femur_med_r.torque.Y	femur_med_tibia_r.femur_med_r.torque.Z	femur_lat_tibia_r.tibia_upper_r.force.X	femur_lat_tibia_r.tibia_upper_r.force.Y	femur_lat_tibia_r.tibia_upper_r.force.Z	femur_lat_tibia_r.tibia_upper_r.torque.X	femur_lat_tibia_r.tibia_upper_r.torque.Y	femur_lat_tibia_r.tibia_upper_r.torque.Z	femur_lat_tibia_r.femur_lat_r.force.X	femur_lat_tibia_r.femur_lat_r.force.Y	femur_lat_tibia_r.femur_lat_r.force.Z	femur_lat_tibia_r.femur_lat_r.torque.X	femur_lat_tibia_r.femur_lat_r.torque.Y	femur_lat_tibia_r.femur_lat_r.torque.Z	aACL_R	pACL_R	aPCL_R	pPCL_R	aMCL_R	aLCL_R	aPCL_L	pPCL_L	aMCL_L	aLCL_L	ground_prescribedForce_0_fx	ground_prescribedForce_0_fy	ground_prescribedForce_0_fz
      0.00000000	     37.48087652	     28.28714471	     30.25598133	     13.28977762	     14.47626353	     15.91713841	     14.16999977	     18.91241090	     23.16137248	     30.98336454	      7.50051544	     27.93927808	     20.68957741	     14.51222487	     12.16230296	     19.66717628	     12.65940644	     11.16605282	      7.42590295	     18.12681708	     27.55933735	     20.56469162	     63.94906620	     55.74758807	     18.09791099	      9.16719286	     20.03897647	     58.20677742	     52.37804251	     53.96049431	     69.99317843	     33.58084580	     20.17185669	    152.72720615	     92.44658902	     14.93332009	     15.26895791	     41.82851940	     21.62523106	     46.40594865	      8.86060096	     25.04818486	      7.96045570	     37.48087652	     28.28714471	     30.25598133	     13.28977762	     14.47626353	     15.91713841	     42.06683902	     20.39635155	     37.67631238	     36.01822118	      7.59254209	     27.93927808	     20.68957741	     14.51222487	     12.16230296	     19.66717628	     12.58139899	     11.16605282	      7.78214370	     18.12681708	     27.55933735	     20.56469162	     63.94906620	     55.74758807	     18.09791099	      9.16719286	     20.03897647	     52.59637061	     32.48786114	     37.22481259	     39.87514307	     67.71424671	     31.64857027	    152.72720615	     92.44658902	     14.93332009	     15.26895791	     41.82851940	     21.62523106	     46.40594865	      8.86060096	     25.04818486	      7.96045570	    124.99446086	    124.99446086	     44.97041513	     44.97041513	     60.98287244	     60.98287244	      2.76307435	     50.99597937	     -9.56042239	      5.21997485	     -0.02578839	      1.48581788	     -2.76307435	    -50.99597937	      9.56042239	     -1.74637766	      0.02558040	     -0.48301696	     -3.31599387	     20.97615968	     -3.40468921	      0.94473225	     -0.02138609	     -1.00501789	      3.31599387	    -20.97615968	      3.40468921	      0.28075727	      0.00368718	     -0.29758878	     54.40911319	     29.34655805	      1.33196596	     -1.26676277	      1.37467704	     22.19062079	    -54.40911319	    -29.34655805	     -1.33196596	      0.87594692	     -1.61100135	     -1.01947267	     79.00943643	     31.41245065	     12.21479131	     -4.25897505	     -1.79505842	     32.21275085	    -79.00943643	    -31.41245065	    -12.21479131	     -0.28370481	      1.32153570	     -1.61140239	      0.00000000	      0.00000000	      0.00000000	      0.00000000	      0.00000000	      0.00000000	      0.00000000	      0.00000000	      0.00000000	      0.00000000	      0.00000000	      0.00000000	      0.00000000	      0.00000000	      0.00000000	      0.00000000	      0.00000000	      0.00000000	      0.00000000	      0.00000000	      0.00000000	      0.00000000	      0.00000000	      0.00000000	     -3.69257655	     -4.01419739	      1.09436135	     -0.08647549	      0.06126490	     -0.06694971	      3.69257655	      4.01419739	     -1.09436135	      0.52100842	     -0.06228195	      1.52941316	      0.00000000	      0.00000000	      0.00000000	      0.00000000	      0.00000000	      0.00000000	      0.00000000	      0.00000000	      0.00000000	      0.00000000	      0.00000000	      0.00000000	      0.00000000	      0.00000000	    478.56693593	    308.39765305	     12.50057268	      0.00000000	      0.00000000	      0.00000000	      0.00000001	      0.00000000	     84.26488000	    -70.70660000	      0.00000000
      0.00085624	     37.47339934	     28.27469683	     30.24486882	     13.27473236	     14.46781668	     15.91380849	     13.85804675	     18.60224016	     22.67631943	     28.51073050	      7.17438217	     27.92918348	     20.65486063	     14.50590997	     12.15852436	     19.66406703	     12.41562376	     11.15657757	      7.15122917	     18.12018254	     27.54941051	     20.55845841	     63.93195372	     55.73773433	     18.08670487	      9.16565604	     20.03762940	     57.29588560	     51.08949183	     52.36756107	     68.35562657	     31.90844777	     19.24971087	    149.30148839	     91.94363844	     14.93457472	     15.24102113	     42.72127700	     21.62677355	     46.33884956	      9.17655517	     25.28745505	      8.03625818	     37.47339934	     28.27469683	     30.24486882	     13.27473236	     14.46781668	     15.91380849	     42.06350511	     20.39184385	     37.67258962	     35.99658902	      7.58233049	     27.92918348	     20.65486063	     14.50590997	     12.15852436	     19.66406703	     12.58061891	     11.15657757	      7.77622958	     18.12018254	     27.54941051	     20.55845841	     63.93195372	     55.73773433	     18.08670487	      9.16565604	     20.03762940	     52.59073134	     32.47965782	     37.21667865	     39.86686555	     67.71096653	     31.64700984	    152.71700293	     92.44401765	     14.93383569	     15.26930421	     41.82320936	     21.62332628	     46.40404627	      8.85858745	     25.04457666	      7.95900872	    124.86304507	    124.86304507	     44.95789716	     44.95789716	     60.96933822	     60.96933822	      2.76307435	     50.99597937	     -9.56042239	      5.21997485	     -0.02578839	      1.48581788	     -2.76307435	    -50.99597937	      9.56042239	     -1.74637766	      0.02558040	     -0.48301696	     -3.31599387	     20.97615968	     -3.40468921	      0.94473225	     -0.02138609	     -1.00501789	      3.31599387	    -20.97615968	      3.40468921	      0.28075727	      0.00368718	     -0.29758878	    257.64071920	    165.57964948	    -25.45120224	      6.42119979	      6.23774566	    104.95786195	   -257.64071920	   -165.57964948	     25.45120224	      3.97759221	     -6.95676838	     -4.36942230	    366.14994976	    168.14952224	      1.76940666	      3.32398254	     -8.79324341	    149.04248004	   -366.14994976	   -168.14952224	     -1.76940666	     -3.31976161	      7.28877714	     -6.94411669	      0.00000000	      0.00000000	      0.00000000	      0.00000000	      0.00000000	      0.00000000	      0.00000000	      0.00000000	      0.00000000	      0.00000000	      0.00000000	      0.00000000	      0.00000000	      0.00000000	      0.00000000	      0.00000000	      0.00000000	      0.00000000	      0.00000000	      0.00000000	      0.00000000	      0.00000000	      0.00000000	      0.00000000	    -24.96076055	    -22.33062104	      7.11638386	     -0.51985403	      0.40897553	     -0.53952220	     24.96076055	     22.33062104	     -7.11638386	      3.33044536	     -0.41947727	     10.36473513	      0.00000000	      0.00000000	      0.00000000	      0.00000000	      0.00000000	      0.00000000	      0.00000000	      0.00000000	      0.00000000	      0.00000000	      0.00000000	      0.00000000	      0.00000000	      0.00000000	    438.84676585	    218.39495418	    -47.89186495	      0.00000000	      0.00000000	      0.00000000	      0.00000001	      0.00000000	     84.26488000	    -70.70660000	      0.00000000
      0.00171248	     37.45111919	     28.23846930	     30.21229506	     13.23388030	     14.44360985	     15.90389498	     13.37306815	     18.12551761	     21.86988314	     25.37852726	      6.82960706	     27.89957803	     20.56576328	     14.48752462	     12.14738791	     19.65476524	     12.04731464	     11.13010375	      6.80615976	     18.10073520	     27.52029580	     20.54007374	     63.88159701	     55.70832019	     18.05466653	      9.16107294	     20.03356343	     55.75536803	     48.87461419	     49.63296586	     65.31643879	     29.06701182	     17.68403973	    142.22505701	     90.85781701	     14.96060462	     15.20420958	     44.63439500	     21.63902937	     46.20453155	      9.86055428	     25.75578724	      8.17831318	     37.45111919	     28.23846930	     30.21229506	     13.23388030	     14.44360985	     15.90389498	     42.05345526	     20.37843902	     37.66138798	     35.93462661	      7.55520220	     27.89957803	     20.56576328	     14.48752462	     12.14738791	     19.65476524	     12.57826497	     11.13010375	      7.75955691	     18.10073520	     27.52029580	     20.54007374	     63.88159701	     55.70832019	     18.05466653	      9.16107294	     20.03356343	     52.57377607	     32.45534394	     37.19248986	     39.84222472	     67.70104778	     31.64229158	    152.68620434	     92.43623349	     14.93535821	     15.27031410	     41.80727432	     21.61758800	     46.39828888	      8.85260675	     25.03377234	      7.95468518	    124.50327323	    124.50327323	     44.92088011	     44.92088011	     60.92945067	     60.92945067	      2.76307435	     50.99597937	     -9.56042239	      5.21997485	     -0.02578839	      1.48581788	     -2.76307435	    -50.99597937	      9.56042239	     -1.74637766	      0.02558040	     -0.48301696	     -3.31599387	     20.97615968	     -3.40468921	      0.94473225	     -0.02138609	     -1.00501789	      3.31599387	    -20.97615968	      3.40468921	      0.28075727	      0.00368718	     -0.29758878	    327.62259457	    235.81823819	    -28.91250427	      6.03673491	      8.11539723	    133.50290930	   -327.62259457	   -235.81823819	     28.91250427	      5.97253053	     -9.07789383	     -5.27007216	    479.54812814	    223.45154660	     18.88216998	     -2.39641213	    -11.34588870	    195.22511197	   -479.54812814	   -223.45154660	    -18.88216998	     -3.91185519	      9.15467629	     -9.08402809	      0.00000000	      0.00000000	      0.00000000	      0.00000000	      0.00000000	      0.00000000	      0.00000000	      0.00000000	      0.00000000	      0.00000000	      0.00000000	      0.00000000	      0.00000000	      0.00000000	      0.00000000	      0.00000000	      0.00000000	      0.00000000	      0.00000000	      0.00000000	      0.00000000	      0.00000000	      0.00000000	      0.00000000	    -79.17183883	    -74.70525167	     22.14234883	     -1.65154956	      1.26020471	     -1.65004119	     79.17183883	     74.70525167	    -22.14234883	     10.41816294	     -1.29905491	     32.86473268	      0.00000000	      0.00000000	      0.00000000	      0.00000000	      0.00000000	      0.00000000	      0.00000000	      0.00000000	      0.00000000	      0.00000000	      0.00000000	      0.00000000	      0.00000000	      0.00000000	    430.69758397	    218.75377732	    -42.86619181	      0.00000000	      0.00000000	      0.00000000	      0.00000001	      0.00000000	     84.26488000	    -70.70660000	      0.00000000
      0.00256872	     37.41429730	     28.18018153	     30.15946004	     13.17291944	     14.40532708	     15.88752802	     13.07436491	     17.83577657	     21.25955791	     23.97847217	      6.76393508	     27.85152875	     20.44018982	     14.45793031	     12.12921213	     19.63932154	     11.80034268	     11.08937873	      6.67616101	     18.06919051	     27.47303931	     20.51004260	     63.79955298	     55.65960825	     18.00413082	      9.15349129	     20.02674274	     54.59578646	     47.32617772	     47.63022440	     62.83944568	     26.57722138	     16.30590021	    134.01596145	     89.55586473	     15.03139679	     15.19708972	     46.99428044	     21.64255323	     46.03036625	     10.68811184	     26.25698624	      8.32223834	     37.41429730	     28.18018153	     30.15946004	     13.17291944	     14.40532708	     15.88752802	     42.03662209	     20.35633656	     37.64266503	     35.83668635	      7.51562367	     27.85152875	     20.44018982	     14.45793031	     12.12921213	     19.63932154	     12.57431743	     11.08937873	      7.73366027	     18.06919051	     27.47303931	     20.51004260	     63.79955298	     55.65960825	     18.00413082	      9.15349129	     20.02674274	     52.54546201	     32.41540403	     37.15260370	     39.80154480	     67.68437380	     31.63436045	    152.63453626	     92.42313070	     14.93784039	     15.27193346	     41.78072269	     21.60798365	     46.38860093	      8.84275865	     25.01582727	      7.94752249	    123.96176056	    123.96176056	     44.86023611	     44.86023611	     60.86434934	     60.86434934	      2.76307435	     50.99597937	     -9.56042239	      5.21997485	     -0.02578839	      1.48581788	     -2.76307435	    -50.99597937	      9.56042239	     -1.74637766	      0.02558040	     -0.48301696	     -3.31599387	     20.97615968	     -3.40468921	      0.94473225	     -0.02138609	     -1.00501789	      3.31599387	    -20.97615968	      3.40468921	      0.28075727	      0.00368718	     -0.29758878	    298.28696256	    224.64903499	    -25.95754019	      5.05201267	      7.49651848	    121.67094418	   -298.28696256	   -224.64903499	     25.95754019	      5.78434275	     -8.38002717	     -4.79299090	    447.87224083	    194.82496631	     33.85632686	     -9.25152183	    -10.44131688	    182.50340453	   -447.87224083	   -194.82496631	    -33.85632686	     -2.89278776	      8.18047467	     -8.84110256	      0.00000000	      0.00000000	      0.00000000	      0.00000000	      0.00000000	      0.00000000	      0.00000000	      0.00000000	      0.00000000	      0.00000000	      0.00000000	      0.00000000	      0.00000000	      0.00000000	      0.00000000	      0.00000000	      0.00000000	      0.00000000	      0.00000000	      0.00000000	      0.00000000	      0.00000000	      0.00000000	      0.00000000	   -116.14390746	   -114.96682506	     36.48207307	     -2.60745318	      1.89559045	     -2.32598418	    116.14390746	    114.96682506	    -36.48207307	     17.01865214	     -1.90126593	     48.18742589	      0.00000000	      0.00000000	      0.00000000	      0.00000000	      0.00000000	      0.00000000	      0.00000000	      0.00000000	      0.00000000	      0.00000000	      0.00000000	      0.00000000	      0.00000000	      0.00000000	    431.90961777	    237.24690649	    -23.42881926	      0.00000000	      0.00000000	      0.00000000	      0.00000001	      0.00000000	     84.26488000	    -70.70660000	      0.00000000
